<svg width="22" height="20" viewBox="0 0 22 20" fill="none" xmlns="http://www.w3.org/2000/svg">
<path d="M5.63257 9.25C6.43892 9.25 7.16648 8.80416 7.6641 8.16967C8.43726 7.18384 9.41169 6.3634 10.5255 5.77021C11.2477 5.38563 11.8743 4.81428 12.1781 4.05464C12.3908 3.5231 12.5 2.95587 12.5 2.38338V1.75C12.5 1.33579 12.8358 1 13.25 1C14.4926 1 15.5 2.00736 15.5 3.25C15.5 4.40163 15.2404 5.49263 14.7766 6.46771C14.511 7.02604 14.8836 7.75 15.5019 7.75M15.5019 7.75H18.6277C19.6544 7.75 20.5733 8.44399 20.682 9.46486C20.7269 9.88708 20.75 10.3158 20.75 10.75C20.75 13.5976 19.7581 16.2136 18.101 18.2712C17.7134 18.7525 17.1142 19 16.4962 19H12.4802C11.9966 19 11.5161 18.922 11.0572 18.7691L7.94278 17.7309C7.48393 17.578 7.00342 17.5 6.51975 17.5H4.90421M15.5019 7.75H13.25M4.90421 17.5C4.98702 17.7046 5.07713 17.9054 5.17423 18.1022C5.37137 18.5017 5.0962 19 4.65067 19H3.74289C2.85418 19 2.02991 18.482 1.77056 17.632C1.43208 16.5226 1.25 15.3451 1.25 14.125C1.25 12.5725 1.54481 11.0889 2.08149 9.72711C2.38655 8.95303 3.16733 8.5 3.99936 8.5H5.05212C5.52404 8.5 5.7973 9.05591 5.5523 9.45925C4.72588 10.8198 4.25 12.4168 4.25 14.125C4.25 15.3185 4.48232 16.4578 4.90421 17.5Z" stroke="#0F172A" stroke-width="1.5" stroke-linecap="round" stroke-linejoin="round"/>
</svg>
