<svg width="20" height="20" viewBox="0 0 20 20" fill="none" xmlns="http://www.w3.org/2000/svg">
<path fill-rule="evenodd" clip-rule="evenodd" d="M10 0.25C4.61522 0.25 0.25 4.61522 0.25 10C0.25 15.3848 4.61522 19.75 10 19.75C15.3848 19.75 19.75 15.3848 19.75 10C19.75 4.61522 15.3848 0.25 10 0.25ZM4.26197 4.0723C2.71293 5.57208 1.75 7.67359 1.75 10C1.75 14.5563 5.44365 18.25 10 18.25C14.5563 18.25 18.25 14.5563 18.25 10C18.25 7.24461 16.8992 4.80472 14.8237 3.3064C14.4863 3.84545 14.0374 4.30831 13.5056 4.66289L12.2499 5.5L12.4145 5.82918C12.6835 6.3671 12.2923 7 11.6909 7C11.5653 7 11.4414 6.97076 11.3291 6.91459L10.7252 6.61262C10.2921 6.39607 9.76896 6.48095 9.42656 6.82336L9.29541 6.9545C8.85607 7.39384 8.85607 8.10615 9.29541 8.54549L9.59054 8.84062C9.84745 9.09753 10.2126 9.21455 10.571 9.15482L11.7411 8.95981C12.0641 8.90596 12.3946 8.99558 12.6462 9.20525L13.9755 10.313C14.2962 10.5802 14.4356 11.0073 14.3344 11.4122C13.9519 12.9419 13.1609 14.339 12.046 15.4539L11.3233 16.1766C10.9809 16.519 10.4578 16.6039 10.0247 16.3874L9.8718 16.3109C9.49067 16.1204 9.24992 15.7308 9.24992 15.3047V14.216C9.24992 13.9176 9.13139 13.6315 8.92041 13.4205L7.57328 12.0734C7.23087 11.731 7.14599 11.2079 7.36254 10.7747L7.74992 10L6.10954 8.35962C5.22527 7.47535 4.6394 6.33689 4.43381 5.10337L4.26197 4.0723Z" fill="#666666"/>
</svg>
